<?xml version="1.0" encoding="iso-8859-1"?>
<!-- Generator: Adobe Illustrator 19.1.0, SVG Export Plug-In . SVG Version: 6.00 Build 0)  -->
<svg xmlns="http://www.w3.org/2000/svg" xmlns:xlink="http://www.w3.org/1999/xlink" version="1.1" id="Capa_1" x="0px" y="0px" viewBox="0 0 48 48" style="enable-background:new 0 0 48 48;" xml:space="preserve" width="512px" height="512px">
<g id="ball">
	<g>
		<path d="M24,0C10.745,0,0,10.745,0,24s10.745,24,24,24c13.255,0,24-10.745,24-24S37.255,0,24,0z M24,2    c5.728,0,10.949,2.202,14.868,5.801L27.401,19.268c-2.898-3.61-4.354-8.957-5.45-17.17C22.626,2.036,23.309,2,24,2z M19.971,2.376    c1.158,8.65,2.817,14.384,6.03,18.292l-5.576,5.576c-3.741-3.025-9.353-4.705-18.123-5.858    C3.813,11.285,10.928,4.058,19.971,2.376z M2,24c0-0.548,0.027-1.09,0.067-1.628c8.189,1.078,13.412,2.588,16.887,5.344    L7.801,38.868C4.202,34.949,2,29.728,2,24z M24,46c-5.685,0-10.874-2.168-14.782-5.72l11.21-11.21    c3.314,3.519,4.701,8.748,5.859,16.811C25.535,45.959,24.772,46,24,46z M28.264,45.582c-1.231-8.557-2.76-14.176-6.368-17.981    l5.471-5.471c3.799,3.588,9.442,5.36,18.125,6.554C43.638,37.201,36.84,43.89,28.264,45.582z M28.76,20.738l11.52-11.52    C43.832,13.126,46,18.315,46,24c0,0.919-0.063,1.822-0.173,2.712C37.536,25.578,32.265,24.021,28.76,20.738z" fill="#e74c3c"/>
	</g>
</g>
<g>
</g>
<g>
</g>
<g>
</g>
<g>
</g>
<g>
</g>
<g>
</g>
<g>
</g>
<g>
</g>
<g>
</g>
<g>
</g>
<g>
</g>
<g>
</g>
<g>
</g>
<g>
</g>
<g>
</g>
</svg>
