<?xml version="1.0" encoding="iso-8859-1"?>
<svg xmlns="http://www.w3.org/2000/svg" xmlns:xlink="http://www.w3.org/1999/xlink" version="1.1" viewBox="0 0 314.961 314.961" enable-background="new 0 0 314.961 314.961" width="512px" height="512px">
  <g>
    <g>
      <path d="m254.585,57.424c-19.141-36.543-57.424-57.424-97.447-57.424-20.882,0-41.763,6.96-59.164,17.401-52.203,31.322-67.864,102.667-36.542,156.611l73.085,127.029c5.22,8.701 13.921,13.921 22.621,13.921 8.701,0 17.401-5.22 22.621-13.921l74.825-130.509c0-1.74 0-1.74 0-1.74 20.882-34.803 19.143-76.566 0.001-111.368zm-15.661,104.407c0,1.74 0,1.74 0,1.74l-74.825,128.769c-1.74,5.22-5.22,5.22-6.96,5.22-1.74,0-5.22-1.74-6.96-5.22l-73.086-127.029c-27.842-45.243-13.921-106.147 29.582-132.249 15.661-8.701 33.062-13.921 50.463-13.921 34.802,0 66.124,19.141 81.786,46.983 17.401,29.582 17.401,66.125 0,95.707z" fill="#e74c3c"/>
      <path d="m157.138,71.345c-24.362,0-43.503,19.141-43.503,43.503s19.141,43.503 43.503,43.503 43.503-19.141 43.503-43.503-19.141-43.503-43.503-43.503zm0,69.604c-13.921,0-26.102-12.181-26.102-26.102 0-13.921 12.181-26.102 26.102-26.102 13.921,0 26.102,12.181 26.102,26.102 0,13.921-12.181,26.102-26.102,26.102z" fill="#e74c3c"/>
    </g>
  </g>
</svg>
